G04*
G04 #@! TF.GenerationSoftware,Altium Limited,Altium Designer,18.0.12 (696)*
G04*
G04 Layer_Color=8388736*
%FSLAX25Y25*%
%MOIN*%
G70*
G01*
G75*
G04:AMPARAMS|DCode=11|XSize=46mil|YSize=39mil|CornerRadius=0mil|HoleSize=0mil|Usage=FLASHONLY|Rotation=30.000|XOffset=0mil|YOffset=0mil|HoleType=Round|Shape=Rectangle|*
%AMROTATEDRECTD11*
4,1,4,-0.01017,-0.02839,-0.02967,0.00539,0.01017,0.02839,0.02967,-0.00539,-0.01017,-0.02839,0.0*
%
%ADD11ROTATEDRECTD11*%

G04:AMPARAMS|DCode=12|XSize=46mil|YSize=39mil|CornerRadius=0mil|HoleSize=0mil|Usage=FLASHONLY|Rotation=330.000|XOffset=0mil|YOffset=0mil|HoleType=Round|Shape=Rectangle|*
%AMROTATEDRECTD12*
4,1,4,-0.02967,-0.00539,-0.01017,0.02839,0.02967,0.00539,0.01017,-0.02839,-0.02967,-0.00539,0.0*
%
%ADD12ROTATEDRECTD12*%

%ADD13R,0.03900X0.04600*%
%ADD14C,0.00800*%
%ADD15C,0.03200*%
D11*
X610271Y258600D02*
D03*
X604729Y255400D02*
D03*
X513729Y203400D02*
D03*
X519271Y206600D02*
D03*
D12*
X610271Y202900D02*
D03*
X604729Y206100D02*
D03*
X513729Y259100D02*
D03*
X519271Y255900D02*
D03*
D13*
X562000Y175300D02*
D03*
Y181700D02*
D03*
Y286900D02*
D03*
Y280500D02*
D03*
D14*
X499453Y274114D02*
D03*
X493547Y263886D02*
D03*
D15*
X534229Y175457D02*
D03*
X540978Y186512D02*
D03*
X519271Y251500D02*
D03*
X510945Y262534D02*
D03*
X528500Y178000D02*
D03*
X522300Y239700D02*
D03*
X562000Y231000D02*
D03*
M02*
