G04*
G04 #@! TF.GenerationSoftware,Altium Limited,Altium Designer,18.0.12 (696)*
G04*
G04 Layer_Color=65535*
%FSLAX25Y25*%
%MOIN*%
G70*
G01*
G75*
%ADD10C,0.00700*%
G36*
X557776Y311598D02*
X557776D01*
X555843Y311473D01*
X551989Y311085D01*
X548159Y310513D01*
X544360Y309757D01*
X542475Y309311D01*
X544142Y302626D01*
X541653Y301959D01*
X536752Y300367D01*
X531975Y298437D01*
X527344Y296178D01*
X522882Y293602D01*
X518610Y290721D01*
X514550Y287548D01*
X510721Y284101D01*
X508899Y282279D01*
X503943Y287065D01*
X503943Y287065D01*
X502614Y285656D01*
X500061Y282744D01*
X497649Y279712D01*
X495386Y276569D01*
X494312Y274957D01*
X489359Y278173D01*
Y278173D01*
Y278173D01*
D01*
X490749Y280313D01*
X493776Y284423D01*
X497039Y288346D01*
X500528Y292071D01*
X504230Y295584D01*
X508132Y298873D01*
X512221Y301927D01*
X516483Y304734D01*
X520903Y307286D01*
X525465Y309573D01*
X530154Y311588D01*
X534954Y313323D01*
X539847Y314772D01*
X544817Y315931D01*
X549847Y316795D01*
X554919Y317362D01*
X557467Y317495D01*
X557776Y311598D01*
D02*
G37*
G36*
X569081Y317362D02*
X574153Y316795D01*
X579183Y315931D01*
X584153Y314772D01*
X589046Y313323D01*
X593846Y311588D01*
X598535Y309573D01*
X603097Y307286D01*
X607517Y304734D01*
X611779Y301927D01*
X615868Y298873D01*
X619770Y295584D01*
X623472Y292071D01*
X626961Y288346D01*
X630224Y284423D01*
X633251Y280313D01*
X634641Y278173D01*
X634641Y278173D01*
X634641Y278173D01*
D01*
X629688Y274957D01*
X628614Y276569D01*
X626351Y279712D01*
X623940Y282744D01*
X621386Y285656D01*
X620057Y287065D01*
Y287065D01*
X615101Y282279D01*
X613279Y284101D01*
X609450Y287548D01*
X605390Y290721D01*
X601118Y293602D01*
X596656Y296178D01*
X592025Y298437D01*
X587248Y300367D01*
X582347Y301959D01*
X579858Y302626D01*
X579858D01*
X581525Y309311D01*
X579640Y309757D01*
X575842Y310513D01*
X572011Y311085D01*
X568157Y311473D01*
X566224Y311598D01*
X566533Y317495D01*
X569081Y317362D01*
D02*
G37*
G36*
X567406Y289835D02*
X569197Y289615D01*
X569197D01*
X565598Y260308D01*
X567070Y260127D01*
X569963Y259472D01*
X572776Y258531D01*
X575480Y257313D01*
X578048Y255830D01*
X580455Y254097D01*
X582676Y252132D01*
X584689Y249954D01*
X585582Y248770D01*
X585582Y248770D01*
X609164Y266540D01*
X610249Y265099D01*
X612241Y262090D01*
X614045Y258965D01*
X615656Y255735D01*
X616361Y254075D01*
X589180Y242537D01*
X589760Y241172D01*
X590639Y238340D01*
X591230Y235434D01*
X591528Y232483D01*
Y229517D01*
X591230Y226566D01*
X590639Y223660D01*
X589760Y220828D01*
X589180Y219463D01*
X616361Y207925D01*
X615656Y206264D01*
X614045Y203035D01*
X612241Y199910D01*
X610249Y196901D01*
X609164Y195460D01*
X585582Y213230D01*
X584689Y212046D01*
X582676Y209868D01*
X580455Y207903D01*
X578048Y206170D01*
X575480Y204687D01*
X572776Y203469D01*
X569963Y202528D01*
X567070Y201873D01*
X565598Y201693D01*
X569197Y172385D01*
X567406Y172165D01*
X563804Y171945D01*
X560196D01*
X556594Y172165D01*
X554803Y172385D01*
Y172385D01*
X558401Y201693D01*
X556930Y201873D01*
X554037Y202528D01*
X551225Y203469D01*
X548520Y204687D01*
X545952Y206170D01*
X543545Y207903D01*
X541324Y209868D01*
X539311Y212046D01*
X538418Y213230D01*
X514837Y195460D01*
X513751Y196901D01*
X511759Y199910D01*
X509955Y203035D01*
X508345Y206264D01*
X507640Y207925D01*
X507640Y207925D01*
X534820Y219463D01*
X534240Y220828D01*
X533361Y223660D01*
X532770Y226566D01*
X532472Y229517D01*
Y232483D01*
X532770Y235434D01*
X533361Y238340D01*
X534240Y241172D01*
X534820Y242537D01*
X534820Y242537D01*
X507640Y254075D01*
X508345Y255735D01*
X509955Y258965D01*
X511759Y262090D01*
X513751Y265099D01*
X514837Y266540D01*
Y266540D01*
X514837D01*
X538418Y248770D01*
X539311Y249954D01*
X541324Y252132D01*
X543545Y254097D01*
X545952Y255830D01*
X548520Y257313D01*
X551225Y258531D01*
X554037Y259472D01*
X556930Y260127D01*
X558401Y260308D01*
X558401Y260308D01*
X554803Y289615D01*
X556594Y289835D01*
X560196Y290055D01*
X563804D01*
X567406Y289835D01*
D02*
G37*
G36*
X640332Y268048D02*
X642378Y263373D01*
X644144Y258585D01*
X645625Y253701D01*
X646817Y248738D01*
X647714Y243714D01*
X648314Y238646D01*
X648614Y233552D01*
Y228448D01*
X648314Y223354D01*
X647714Y218285D01*
X646817Y213262D01*
X645625Y208299D01*
X644144Y203415D01*
X642378Y198627D01*
X640332Y193952D01*
X639174Y191678D01*
X633912Y194359D01*
X634770Y196095D01*
X636361Y199627D01*
X637781Y203231D01*
X639026Y206898D01*
X639582Y208754D01*
X632959Y210653D01*
X633626Y213142D01*
X634697Y218181D01*
X635415Y223284D01*
X635774Y228424D01*
Y233576D01*
X635415Y238716D01*
X634697Y243818D01*
X633626Y248858D01*
X632959Y251347D01*
X639582Y253246D01*
X639026Y255102D01*
X637781Y258769D01*
X636361Y262373D01*
X634770Y265905D01*
X633912Y267641D01*
X639174Y270322D01*
X640332Y268048D01*
D02*
G37*
G36*
X490088Y267641D02*
X489229Y265905D01*
X487639Y262373D01*
X486219Y258769D01*
X484974Y255102D01*
X484418Y253246D01*
X484418D01*
X491041Y251347D01*
X490374Y248858D01*
X489303Y243818D01*
X488586Y238716D01*
X488226Y233576D01*
Y228424D01*
X488586Y223284D01*
X489303Y218181D01*
X490374Y213142D01*
X491041Y210653D01*
X491041D01*
X484418Y208754D01*
X484974Y206898D01*
X486219Y203231D01*
X487639Y199627D01*
X489229Y196095D01*
X490088Y194359D01*
X490088Y194359D01*
Y194359D01*
X484826Y191678D01*
X483668Y193952D01*
X481623Y198627D01*
X479856Y203415D01*
X478375Y208299D01*
X477183Y213262D01*
X476286Y218285D01*
X475686Y223354D01*
X475386Y228448D01*
Y233552D01*
X475686Y238646D01*
X476286Y243714D01*
X477183Y248738D01*
X478375Y253701D01*
X479856Y258585D01*
X481623Y263373D01*
X483668Y268048D01*
X484826Y270322D01*
X484826D01*
X490088Y267641D01*
D02*
G37*
G36*
X634641Y183826D02*
X633251Y181686D01*
X630224Y177577D01*
X626961Y173654D01*
X623472Y169929D01*
X619770Y166416D01*
X615868Y163127D01*
X611779Y160073D01*
X607517Y157266D01*
X603097Y154714D01*
X598535Y152427D01*
X593846Y150412D01*
X589046Y148677D01*
X584153Y147228D01*
X579183Y146069D01*
X574153Y145205D01*
X569081Y144638D01*
X566533Y144504D01*
D01*
X566533D01*
X566533D01*
X566224Y150402D01*
X568157Y150526D01*
X572011Y150915D01*
X575842Y151487D01*
X579640Y152243D01*
X581525Y152689D01*
X579858Y159374D01*
X582347Y160041D01*
X587248Y161633D01*
X592025Y163563D01*
X596656Y165822D01*
X601118Y168398D01*
X605390Y171279D01*
X609450Y174451D01*
X613279Y177899D01*
X615101Y179721D01*
X620057Y174935D01*
X621386Y176344D01*
X623940Y179256D01*
X626351Y182288D01*
X628614Y185431D01*
X629688Y187043D01*
X629688D01*
X634641Y183826D01*
D02*
G37*
G36*
X495386Y185431D02*
X497649Y182288D01*
X500061Y179256D01*
X502614Y176344D01*
X503943Y174935D01*
X503943D01*
X508899Y179721D01*
X510721Y177899D01*
X514550Y174451D01*
X518610Y171279D01*
X522882Y168398D01*
X527344Y165822D01*
X531975Y163563D01*
X536752Y161633D01*
X541653Y160041D01*
X544142Y159374D01*
Y159374D01*
Y159374D01*
D01*
X542475Y152689D01*
X544360Y152243D01*
X548159Y151487D01*
X551989Y150915D01*
X555843Y150526D01*
X557776Y150402D01*
X557776Y150402D01*
X557467Y144504D01*
X554919Y144638D01*
X549847Y145205D01*
X544817Y146069D01*
X539847Y147228D01*
X534954Y148677D01*
X530154Y150412D01*
X525465Y152427D01*
X520903Y154714D01*
X516483Y157266D01*
X512221Y160073D01*
X508132Y163127D01*
X504230Y166416D01*
X500528Y169929D01*
X497039Y173654D01*
X493776Y177577D01*
X490749Y181686D01*
X489359Y183826D01*
X494312Y187043D01*
X495386Y185431D01*
D02*
G37*
D10*
X611446Y262165D02*
X613946Y257835D01*
X601054Y256165D02*
X603554Y251835D01*
X613946Y257835D01*
X601054Y256165D02*
X611446Y262165D01*
Y199335D02*
X613946Y203665D01*
X601054Y205335D02*
X603554Y209665D01*
X601054Y205335D02*
X611446Y199335D01*
X603554Y209665D02*
X613946Y203665D01*
X559500Y172500D02*
X564500D01*
X559500Y184500D02*
X564500D01*
X559500Y172500D02*
Y184500D01*
X564500Y172500D02*
Y184500D01*
X510054Y204165D02*
X512554Y199835D01*
X520446Y210165D02*
X522946Y205835D01*
X510054Y204165D02*
X520446Y210165D01*
X512554Y199835D02*
X522946Y205835D01*
X510054Y258335D02*
X512554Y262665D01*
X520446Y252335D02*
X522946Y256665D01*
X512554Y262665D02*
X522946Y256665D01*
X510054Y258335D02*
X520446Y252335D01*
X559500Y289700D02*
X564500D01*
X559500Y277700D02*
X564500D01*
Y289700D01*
X559500Y277700D02*
Y289700D01*
M02*
