G04*
G04 #@! TF.GenerationSoftware,Altium Limited,Altium Designer,18.0.12 (696)*
G04*
G04 Layer_Color=16711935*
%FSLAX25Y25*%
%MOIN*%
G70*
G01*
G75*
%ADD13R,0.03900X0.04600*%
%ADD14C,0.00800*%
%ADD15C,0.03200*%
%ADD34C,0.70800*%
%ADD35R,0.20800X0.10800*%
G04:AMPARAMS|DCode=36|XSize=47.37mil|YSize=39.5mil|CornerRadius=0mil|HoleSize=0mil|Usage=FLASHONLY|Rotation=60.000|XOffset=0mil|YOffset=0mil|HoleType=Round|Shape=Rectangle|*
%AMROTATEDRECTD36*
4,1,4,0.00526,-0.03039,-0.02895,-0.01064,-0.00526,0.03039,0.02895,0.01064,0.00526,-0.03039,0.0*
%
%ADD36ROTATEDRECTD36*%

G04:AMPARAMS|DCode=37|XSize=35.56mil|YSize=67.06mil|CornerRadius=0mil|HoleSize=0mil|Usage=FLASHONLY|Rotation=60.000|XOffset=0mil|YOffset=0mil|HoleType=Round|Shape=Rectangle|*
%AMROTATEDRECTD37*
4,1,4,0.02015,-0.03216,-0.03793,0.00137,-0.02015,0.03216,0.03793,-0.00137,0.02015,-0.03216,0.0*
%
%ADD37ROTATEDRECTD37*%

%ADD38R,0.06800X0.06800*%
%ADD39C,0.06800*%
%ADD40R,0.10249X0.07099*%
%ADD41R,0.02178X0.04147*%
%ADD42R,0.03950X0.04343*%
%ADD43R,0.05918X0.06706*%
%ADD44R,0.04343X0.03950*%
G36*
X562455Y309171D02*
X564246Y308935D01*
X564256Y308933D01*
X564296Y308925D01*
X566041Y308457D01*
X566069Y308448D01*
X566090Y308441D01*
X567759Y307750D01*
X567805Y307727D01*
X569369Y306823D01*
X569412Y306795D01*
X570845Y305695D01*
X570884Y305661D01*
X572161Y304384D01*
X572195Y304345D01*
X573021Y303269D01*
X600870D01*
X600922Y303265D01*
X600972Y303255D01*
X601021Y303239D01*
X601067Y303216D01*
X601110Y303187D01*
X601149Y303153D01*
X601183Y303114D01*
X601212Y303071D01*
X601235Y303025D01*
X601251Y302976D01*
X601261Y302925D01*
X601265Y302874D01*
Y287126D01*
X601261Y287074D01*
X601251Y287024D01*
X601235Y286975D01*
X601212Y286929D01*
X601183Y286886D01*
X601149Y286847D01*
X601110Y286813D01*
X601067Y286784D01*
X601021Y286761D01*
X600972Y286745D01*
X600922Y286735D01*
X600870Y286731D01*
X573021D01*
X572195Y285655D01*
X572161Y285616D01*
X570884Y284339D01*
X570845Y284305D01*
X569412Y283205D01*
X569369Y283176D01*
X567805Y282273D01*
X567790Y282266D01*
X567759Y282250D01*
X566090Y281559D01*
X566074Y281554D01*
X566041Y281543D01*
X564296Y281075D01*
X564266Y281069D01*
X564246Y281065D01*
X562455Y280829D01*
X562403Y280826D01*
X560597D01*
X560545Y280829D01*
X558754Y281065D01*
X558744Y281067D01*
X558704Y281075D01*
X556959Y281543D01*
X556931Y281552D01*
X556910Y281559D01*
X555241Y282250D01*
X555195Y282273D01*
X553631Y283176D01*
X553588Y283205D01*
X552155Y284305D01*
X552116Y284339D01*
X550839Y285616D01*
X550805Y285655D01*
X549979Y286731D01*
X522130D01*
X522078Y286735D01*
X522028Y286745D01*
X521979Y286761D01*
X521933Y286784D01*
X521890Y286813D01*
X521851Y286847D01*
X521817Y286886D01*
X521788Y286929D01*
X521765Y286975D01*
X521749Y287024D01*
X521739Y287074D01*
X521735Y287126D01*
Y302874D01*
X521739Y302925D01*
X521749Y302976D01*
X521765Y303025D01*
X521788Y303071D01*
X521817Y303114D01*
X521851Y303153D01*
X521890Y303187D01*
X521933Y303216D01*
X521979Y303239D01*
X522028Y303255D01*
X522078Y303265D01*
X522130Y303269D01*
X549979D01*
X550805Y304345D01*
X550839Y304384D01*
X552116Y305661D01*
X552155Y305695D01*
X553588Y306795D01*
X553631Y306823D01*
X555195Y307727D01*
X555210Y307734D01*
X555241Y307750D01*
X556910Y308441D01*
X556926Y308446D01*
X556959Y308457D01*
X558704Y308925D01*
X558732Y308930D01*
X558754Y308935D01*
X560545Y309171D01*
X560597Y309174D01*
X562403D01*
X562455Y309171D01*
D02*
G37*
D13*
X523500Y159300D02*
D03*
Y165700D02*
D03*
X527500Y239700D02*
D03*
Y233300D02*
D03*
X525925Y183800D02*
D03*
Y190200D02*
D03*
X534425Y183800D02*
D03*
Y190200D02*
D03*
X606000Y158800D02*
D03*
Y165200D02*
D03*
X597500Y158800D02*
D03*
Y165200D02*
D03*
D14*
X499453Y274114D02*
D03*
X493547Y263886D02*
D03*
D15*
X534229Y175457D02*
D03*
X540978Y186512D02*
D03*
X519271Y251500D02*
D03*
X510945Y262534D02*
D03*
X528500Y178000D02*
D03*
X522300Y239700D02*
D03*
X562000Y231000D02*
D03*
D34*
X609500Y229500D02*
D03*
D35*
Y274500D02*
D03*
Y184500D02*
D03*
D36*
X499908Y283171D02*
D03*
X485932Y258963D02*
D03*
X507068Y279037D02*
D03*
X493092Y254829D02*
D03*
D37*
X498038Y257884D02*
D03*
X503943Y268112D02*
D03*
X506896Y273227D02*
D03*
D38*
X498000Y197500D02*
D03*
D39*
Y207500D02*
D03*
Y217500D02*
D03*
Y227500D02*
D03*
Y237500D02*
D03*
D40*
X528661Y213291D02*
D03*
D41*
X532500Y207583D02*
D03*
X529941D02*
D03*
X527382D02*
D03*
X524823D02*
D03*
X532500Y219000D02*
D03*
X529941D02*
D03*
X527382D02*
D03*
X524823D02*
D03*
D42*
X506260Y172500D02*
D03*
X513740D02*
D03*
X510000Y180374D02*
D03*
D43*
X568299Y170358D02*
D03*
Y152642D02*
D03*
X555701Y170358D02*
D03*
D44*
X534063Y165740D02*
D03*
Y158260D02*
D03*
X541937Y162000D02*
D03*
M02*
