G04*
G04 #@! TF.GenerationSoftware,Altium Limited,Altium Designer,18.0.12 (696)*
G04*
G04 Layer_Color=32896*
%FSLAX25Y25*%
%MOIN*%
G70*
G01*
G75*
%ADD10C,0.00700*%
%ADD16C,0.01000*%
G36*
X563116Y202760D02*
X563467Y202731D01*
X563731Y202702D01*
X563906Y202673D01*
X563965D01*
X564112Y202614D01*
X564199Y202526D01*
X564258Y202438D01*
Y202409D01*
Y202262D01*
X564287Y202057D01*
X564317Y201706D01*
X564346Y201530D01*
X564375Y201384D01*
Y201296D01*
Y201267D01*
X564404Y200944D01*
X564434Y200739D01*
X564463Y200593D01*
Y200534D01*
X564522Y200417D01*
X564580Y200329D01*
X564668Y200271D01*
X564697D01*
X565137Y200124D01*
X565547Y199978D01*
X565928Y199831D01*
X566250Y199685D01*
X566543Y199539D01*
X566748Y199421D01*
X566865Y199363D01*
X566923Y199334D01*
X567041Y199304D01*
X567158D01*
X567246Y199334D01*
X567275Y199363D01*
X567392Y199451D01*
X567538Y199568D01*
X567831Y199802D01*
X567978Y199919D01*
X568095Y199978D01*
X568154Y200036D01*
X568183Y200066D01*
X568417Y200271D01*
X568593Y200417D01*
X568710Y200505D01*
X568739Y200534D01*
X568769Y200564D01*
X568798D01*
X568944Y200593D01*
X569062D01*
X569120Y200564D01*
X569149Y200534D01*
X569706Y200095D01*
X569940Y199890D01*
X570145Y199685D01*
X570321Y199509D01*
X570438Y199392D01*
X570526Y199304D01*
X570555Y199275D01*
X570907Y198894D01*
X571141Y198601D01*
X571229Y198484D01*
X571288Y198396D01*
X571346Y198367D01*
Y198338D01*
Y198308D01*
X571376Y198191D01*
Y198074D01*
X571346Y197986D01*
Y197957D01*
X571229Y197840D01*
X571112Y197693D01*
X570878Y197400D01*
X570790Y197254D01*
X570702Y197137D01*
X570643Y197078D01*
X570614Y197049D01*
X570409Y196815D01*
X570292Y196668D01*
X570204Y196551D01*
X570175Y196522D01*
X570145Y196492D01*
Y196463D01*
X570116Y196346D01*
Y196229D01*
X570145Y196170D01*
Y196141D01*
X570350Y195731D01*
X570555Y195350D01*
X570702Y194969D01*
X570819Y194618D01*
X570936Y194325D01*
X570995Y194120D01*
X571053Y193973D01*
Y193915D01*
X571112Y193798D01*
X571200Y193710D01*
X571288Y193651D01*
X571463D01*
X571668Y193622D01*
X572020Y193593D01*
X572196Y193563D01*
X572342D01*
X572430Y193534D01*
X572459D01*
X572781Y193505D01*
X573016Y193475D01*
X573191D01*
X573279Y193446D01*
X573367Y193388D01*
X573396Y193358D01*
X573426Y193329D01*
X573455Y193212D01*
X573484Y193065D01*
X573514Y192948D01*
Y192919D01*
Y192890D01*
X573543Y192362D01*
X573572Y191865D01*
Y191396D01*
X573543Y190986D01*
X573514Y190605D01*
X573484Y190341D01*
X573455Y190166D01*
Y190136D01*
Y190107D01*
X573396Y189961D01*
X573309Y189873D01*
X573221Y189814D01*
X573045D01*
X572840Y189785D01*
X572488Y189756D01*
X572313Y189726D01*
X572166D01*
X572078Y189697D01*
X572049D01*
X571756Y189668D01*
X571522Y189638D01*
X571405Y189609D01*
X571346D01*
X571229Y189551D01*
X571112Y189492D01*
X571083Y189404D01*
X571053Y189375D01*
X570936Y188935D01*
X570790Y188525D01*
X570614Y188145D01*
X570468Y187822D01*
X570350Y187530D01*
X570233Y187325D01*
X570175Y187207D01*
X570145Y187149D01*
X570116Y187002D01*
Y186885D01*
X570145Y186797D01*
Y186768D01*
X570350Y186504D01*
X570614Y186212D01*
X570702Y186094D01*
X570790Y185977D01*
X570848Y185919D01*
X570878Y185889D01*
X571083Y185655D01*
X571200Y185479D01*
X571288Y185362D01*
X571317Y185333D01*
X571346Y185304D01*
Y185274D01*
X571376Y185128D01*
Y185011D01*
X571346Y184952D01*
X571317Y184923D01*
X570878Y184366D01*
X570673Y184132D01*
X570468Y183898D01*
X570292Y183722D01*
X570175Y183605D01*
X570087Y183517D01*
X570057Y183488D01*
X569677Y183165D01*
X569384Y182931D01*
X569267Y182843D01*
X569179Y182785D01*
X569149Y182726D01*
X569120D01*
X568974Y182668D01*
X568856Y182697D01*
X568798D01*
X568769Y182726D01*
X568505Y182931D01*
X568183Y183195D01*
X568066Y183282D01*
X567949Y183370D01*
X567890Y183429D01*
X567861Y183458D01*
X567626Y183663D01*
X567451Y183781D01*
X567334Y183868D01*
X567304Y183898D01*
X567275Y183927D01*
X567158Y183956D01*
X567041D01*
X566953Y183927D01*
X566923D01*
X566513Y183722D01*
X566133Y183517D01*
X565752Y183370D01*
X565430Y183253D01*
X565137Y183136D01*
X564902Y183078D01*
X564756Y183048D01*
X564697Y183019D01*
X564580Y182931D01*
X564492Y182843D01*
X564463Y182785D01*
Y182755D01*
X564434Y182609D01*
X564404Y182404D01*
X564375Y182023D01*
X564346Y181847D01*
Y181701D01*
X564317Y181613D01*
Y181584D01*
X564287Y181291D01*
Y181056D01*
X564258Y180939D01*
Y180881D01*
X564229Y180793D01*
X564170Y180705D01*
X564141Y180676D01*
X564112Y180647D01*
X563994Y180617D01*
X563848Y180588D01*
X563731Y180559D01*
X563672D01*
X563145Y180529D01*
X561768D01*
X561388Y180559D01*
X561124D01*
X560948Y180588D01*
X560890D01*
X560743Y180647D01*
X560655Y180764D01*
X560597Y180851D01*
Y180881D01*
Y181027D01*
X560568Y181203D01*
X560538Y181584D01*
X560509Y181760D01*
Y181906D01*
X560480Y181994D01*
Y182023D01*
X560450Y182345D01*
X560421Y182550D01*
X560392Y182697D01*
Y182726D01*
X560333Y182872D01*
X560275Y182960D01*
X560187Y182990D01*
X560157Y183019D01*
X559718Y183165D01*
X559308Y183312D01*
X558927Y183458D01*
X558605Y183605D01*
X558312Y183722D01*
X558107Y183839D01*
X557990Y183898D01*
X557931Y183927D01*
X557814Y183956D01*
X557697D01*
X557609Y183927D01*
X557580D01*
X557463Y183839D01*
X557316Y183722D01*
X557023Y183488D01*
X556877Y183370D01*
X556760Y183282D01*
X556701Y183224D01*
X556672Y183195D01*
X556438Y182990D01*
X556262Y182872D01*
X556145Y182785D01*
X556115Y182755D01*
Y182726D01*
X556057D01*
X555910Y182668D01*
X555793Y182697D01*
X555735D01*
X555705Y182726D01*
X555178Y183195D01*
X554915Y183400D01*
X554709Y183605D01*
X554534Y183781D01*
X554417Y183898D01*
X554329Y183985D01*
X554299Y184015D01*
X553948Y184396D01*
X553714Y184688D01*
X553626Y184776D01*
X553567Y184864D01*
X553509Y184894D01*
Y184923D01*
Y184952D01*
X553479Y185069D01*
Y185186D01*
X553509Y185274D01*
X553538Y185304D01*
X553626Y185421D01*
X553743Y185567D01*
X553977Y185860D01*
X554094Y186006D01*
X554153Y186124D01*
X554212Y186182D01*
X554241Y186212D01*
X554446Y186446D01*
X554563Y186622D01*
X554651Y186739D01*
X554680Y186768D01*
X554709Y186797D01*
X554739Y186915D01*
Y187032D01*
X554709Y187119D01*
Y187149D01*
X554504Y187559D01*
X554299Y187940D01*
X554153Y188320D01*
X554036Y188672D01*
X553919Y188935D01*
X553905Y188989D01*
X554065Y189228D01*
X554299Y189609D01*
X554470Y189886D01*
X554709Y190254D01*
X555120Y190898D01*
X555295Y191162D01*
X555332Y191220D01*
X555412Y191337D01*
X555735Y191865D01*
X555705Y191835D01*
X555647Y191747D01*
X555559Y191601D01*
X555442Y191396D01*
X555332Y191220D01*
X555090Y190869D01*
X554797Y190400D01*
X554534Y189990D01*
X554470Y189886D01*
X554270Y189580D01*
X553904Y188994D01*
X553905Y188989D01*
X553831Y188877D01*
X553904Y188994D01*
X553860Y189170D01*
X553831Y189316D01*
X553801Y189375D01*
X553743Y189492D01*
X553655Y189551D01*
X553567Y189609D01*
X553538D01*
X553391Y189638D01*
X553186Y189668D01*
X552835Y189697D01*
X552659D01*
X552513Y189726D01*
X552396D01*
X552103Y189756D01*
X551868Y189785D01*
X551751Y189814D01*
X551693D01*
X551605Y189843D01*
X551517Y189902D01*
X551458Y189931D01*
X551429Y189961D01*
X551400Y190078D01*
X551370Y190224D01*
X551341Y190341D01*
Y190400D01*
X551312Y190927D01*
X551283Y191425D01*
Y191894D01*
X551312Y192333D01*
X551341Y192685D01*
X551370Y192948D01*
X551400Y193124D01*
Y193153D01*
Y193183D01*
X551458Y193300D01*
X551546Y193388D01*
X551634Y193446D01*
X551663D01*
X551810Y193475D01*
X552015Y193505D01*
X552366Y193534D01*
X552542Y193563D01*
X552689Y193593D01*
X552806D01*
X553128Y193622D01*
X553333D01*
X553479Y193651D01*
X553509D01*
X553655Y193710D01*
X553743Y193798D01*
X553772Y193886D01*
X553801Y193915D01*
X553948Y194354D01*
X554094Y194764D01*
X554241Y195145D01*
X554387Y195467D01*
X554504Y195760D01*
X554622Y195965D01*
X554680Y196082D01*
X554709Y196141D01*
X554739Y196258D01*
Y196375D01*
X554709Y196463D01*
Y196492D01*
X554622Y196609D01*
X554504Y196756D01*
X554270Y197049D01*
X554153Y197195D01*
X554065Y197312D01*
X554006Y197371D01*
X553977Y197400D01*
X553772Y197635D01*
X553655Y197810D01*
X553567Y197927D01*
X553538Y197957D01*
Y197986D01*
X553509D01*
Y198015D01*
X553479Y198133D01*
Y198250D01*
X553509Y198338D01*
X553538Y198367D01*
X553889Y198806D01*
X554270Y199216D01*
X554651Y199597D01*
X554973Y199919D01*
X555266Y200183D01*
X555500Y200359D01*
X555647Y200505D01*
X555705Y200534D01*
X555735Y200564D01*
X555764D01*
X555881Y200593D01*
X555998D01*
X556057Y200564D01*
X556086Y200534D01*
X556379Y200329D01*
X556672Y200095D01*
X556789Y200007D01*
X556906Y199919D01*
X556965Y199861D01*
X556994Y199831D01*
X557228Y199626D01*
X557404Y199480D01*
X557521Y199392D01*
X557551Y199363D01*
X557580D01*
Y199334D01*
X557697Y199304D01*
X557814D01*
X557902Y199334D01*
X557931D01*
X558751Y199743D01*
X559103Y199890D01*
X559454Y200036D01*
X559747Y200124D01*
X559952Y200212D01*
X560099Y200271D01*
X560157D01*
X560275Y200329D01*
X560362Y200417D01*
X560392Y200505D01*
Y200534D01*
X560421Y200681D01*
X560450Y200886D01*
X560480Y201237D01*
X560509Y201413D01*
X560538Y201559D01*
Y201647D01*
Y201677D01*
X560568Y201999D01*
Y202204D01*
X560597Y202350D01*
Y202380D01*
X560626Y202467D01*
X560685Y202555D01*
X560714Y202585D01*
X560743Y202614D01*
X560860Y202673D01*
X561007Y202702D01*
X561124Y202731D01*
X561183D01*
X561710Y202760D01*
X562208Y202790D01*
X562676D01*
X563116Y202760D01*
D02*
G37*
G36*
X553598Y188520D02*
X553333Y188086D01*
X553304Y188042D01*
X553216Y187881D01*
X553079Y187705D01*
X553304Y188042D01*
X553391Y188203D01*
X553598Y188520D01*
X553655Y188613D01*
X553831Y188877D01*
X553598Y188520D01*
D02*
G37*
G36*
X553040Y187647D02*
X552937Y187486D01*
X552864Y187354D01*
X552806Y187272D01*
X552689Y187061D01*
X552649Y187012D01*
X552630Y186973D01*
X552571Y186915D01*
X552542Y186827D01*
X552513D01*
X552542Y186885D01*
X552571Y186915D01*
X552649Y187012D01*
X552718Y187149D01*
X552806Y187272D01*
X552835Y187325D01*
X552937Y187486D01*
X553011Y187618D01*
X553079Y187705D01*
X553040Y187647D01*
D02*
G37*
G36*
X616317Y297286D02*
X615195Y296125D01*
X615312D01*
Y295500D01*
X614863D01*
X614785Y294534D01*
X614658Y293187D01*
X616151Y291655D01*
X616034Y291538D01*
X614648Y292972D01*
X614638Y292894D01*
X614707Y292855D01*
X614775Y292806D01*
X614833Y292748D01*
X614882Y292689D01*
X614931Y292611D01*
X614951Y292543D01*
X614970Y292465D01*
X614980Y292367D01*
X614970Y292289D01*
X614941Y292192D01*
X614892Y292084D01*
X614824Y291996D01*
X614765Y291928D01*
X614677Y291879D01*
X614589Y291840D01*
X614502Y291821D01*
X614385Y291811D01*
X614277Y291821D01*
X614160Y291860D01*
X614053Y291928D01*
X613975Y292016D01*
X613926Y292084D01*
X613887Y292162D01*
X612794D01*
Y291782D01*
X612442D01*
Y292162D01*
X612393D01*
X612306Y293158D01*
X610724Y291538D01*
X610607Y291645D01*
X612286Y293373D01*
X612208Y294144D01*
X612110Y295207D01*
X612071Y295647D01*
X610500Y297286D01*
X610607Y297394D01*
X612052Y295900D01*
X612013Y296261D01*
X611759D01*
Y296554D01*
X611983D01*
Y296613D01*
X611993Y296652D01*
X612023Y296681D01*
X612052Y296710D01*
X612110Y296759D01*
X612169Y296798D01*
X612227Y296837D01*
X612296Y296867D01*
X612335Y296886D01*
Y297072D01*
X612725D01*
Y296993D01*
X612842Y297013D01*
X612959Y297032D01*
X613077Y297042D01*
X613145D01*
Y297169D01*
X614033D01*
Y297032D01*
X614141Y297013D01*
X614277Y296993D01*
X614414Y296964D01*
X614541Y296925D01*
X614658Y296876D01*
X614746Y296837D01*
X614814Y296789D01*
X614853Y296749D01*
X614882Y296779D01*
X614931Y296808D01*
X614980Y296837D01*
X615048D01*
X615107Y296828D01*
X615175Y296808D01*
X615214Y296759D01*
X615263Y296701D01*
X615273Y296662D01*
X615282Y296603D01*
X615273Y296554D01*
X615263Y296515D01*
X615253Y296486D01*
X615224Y296447D01*
X615195Y296418D01*
X615165Y296398D01*
X615146Y296379D01*
Y296301D01*
X616200Y297394D01*
X616317Y297286D01*
D02*
G37*
G36*
X615897Y290240D02*
Y290220D01*
Y290181D01*
Y290132D01*
Y290064D01*
Y290054D01*
Y290035D01*
Y289986D01*
Y289937D01*
Y289869D01*
Y289800D01*
Y289625D01*
Y289615D01*
Y289586D01*
Y289537D01*
Y289488D01*
Y289342D01*
Y289195D01*
Y289185D01*
Y289166D01*
Y289098D01*
Y289029D01*
Y289010D01*
Y289000D01*
X610832D01*
Y289029D01*
Y289049D01*
Y289078D01*
Y289127D01*
Y289195D01*
Y289205D01*
Y289234D01*
Y289273D01*
Y289322D01*
Y289390D01*
Y289459D01*
Y289625D01*
Y289634D01*
Y289664D01*
Y289713D01*
Y289771D01*
Y289917D01*
Y290064D01*
Y290074D01*
Y290093D01*
Y290171D01*
Y290240D01*
Y290259D01*
Y290269D01*
X615897D01*
Y290240D01*
D02*
G37*
%LPC*%
G36*
X563145Y198279D02*
X562998D01*
X562852Y198191D01*
X562793Y198103D01*
X562764Y197986D01*
Y197957D01*
Y195467D01*
X565693D01*
Y194881D01*
X559162D01*
Y195467D01*
X562091D01*
Y197957D01*
X562061Y198103D01*
X561973Y198191D01*
X561915Y198221D01*
X561885Y198250D01*
X561798Y198279D01*
X561651D01*
X561534Y198250D01*
X561476D01*
X560978Y198162D01*
X560509Y198015D01*
X559659Y197693D01*
X559279Y197488D01*
X558898Y197254D01*
X558576Y197049D01*
X558283Y196815D01*
X558019Y196609D01*
X557785Y196405D01*
X557580Y196199D01*
X557404Y196053D01*
X557287Y195906D01*
X557199Y195789D01*
X557140Y195731D01*
X557111Y195702D01*
X556848Y195350D01*
X556643Y194969D01*
X556467Y194588D01*
X556291Y194208D01*
X556057Y193505D01*
X555910Y192831D01*
X555852Y192538D01*
X555823Y192245D01*
X555793Y192011D01*
X555764Y191806D01*
Y191630D01*
Y191513D01*
Y191425D01*
Y191396D01*
X555793Y190986D01*
X555852Y190576D01*
X556028Y189814D01*
X556262Y189141D01*
X556555Y188555D01*
X556672Y188291D01*
X556818Y188057D01*
X556936Y187852D01*
X557023Y187705D01*
X557140Y187559D01*
X557199Y187471D01*
X557228Y187412D01*
X557258Y187383D01*
X557609Y187002D01*
X557961Y186680D01*
X558341Y186387D01*
X558722Y186124D01*
X559103Y185919D01*
X559454Y185714D01*
X560157Y185391D01*
X560509Y185274D01*
X560802Y185186D01*
X561065Y185128D01*
X561300Y185069D01*
X561476Y185040D01*
X561622Y185011D01*
X561710Y184981D01*
X561739D01*
X561827Y185011D01*
X561856D01*
X562003Y185099D01*
X562061Y185186D01*
X562091Y185304D01*
Y185333D01*
Y187969D01*
X559162D01*
Y187998D01*
X559191Y188028D01*
X559308Y188203D01*
X559454Y188496D01*
X559689Y188848D01*
X559923Y189287D01*
X560187Y189756D01*
X560509Y190283D01*
X560802Y190810D01*
X561095Y191337D01*
X561417Y191835D01*
X561681Y192304D01*
X561944Y192743D01*
X562149Y193095D01*
X562296Y193388D01*
X562413Y193563D01*
X562442Y193593D01*
Y193622D01*
X559162D01*
Y194208D01*
X565693D01*
Y193622D01*
X562442D01*
X565693Y187969D01*
X562764D01*
Y185333D01*
X562823Y185186D01*
X562881Y185099D01*
X562969Y185040D01*
X562998Y185011D01*
X563262D01*
X563760Y185099D01*
X564199Y185216D01*
X565049Y185538D01*
X565781Y185919D01*
X566133Y186124D01*
X566426Y186329D01*
X566689Y186534D01*
X566923Y186739D01*
X567128Y186915D01*
X567304Y187061D01*
X567421Y187207D01*
X567509Y187295D01*
X567568Y187354D01*
X567597Y187383D01*
X567890Y187764D01*
X568124Y188145D01*
X568329Y188525D01*
X568505Y188935D01*
X568769Y189668D01*
X568944Y190371D01*
X569003Y190693D01*
X569062Y190986D01*
X569091Y191220D01*
X569120Y191455D01*
Y191630D01*
Y191747D01*
Y191835D01*
Y191865D01*
X569091Y192275D01*
X569032Y192685D01*
X568827Y193446D01*
X568593Y194149D01*
X568329Y194735D01*
X568183Y194999D01*
X568036Y195204D01*
X567919Y195409D01*
X567831Y195584D01*
X567714Y195702D01*
X567656Y195789D01*
X567626Y195848D01*
X567597Y195877D01*
X567246Y196258D01*
X566894Y196580D01*
X566513Y196873D01*
X566133Y197137D01*
X565781Y197371D01*
X565400Y197576D01*
X564697Y197869D01*
X564375Y197986D01*
X564053Y198074D01*
X563789Y198162D01*
X563555Y198191D01*
X563379Y198250D01*
X563233D01*
X563145Y198279D01*
D02*
G37*
G36*
X613877Y297003D02*
X613311D01*
Y296915D01*
X613877D01*
Y297003D01*
D02*
G37*
G36*
X612559Y296915D02*
X612501D01*
Y296701D01*
X612559D01*
Y296915D01*
D02*
G37*
G36*
X613145Y296876D02*
X612989Y296867D01*
X612852Y296847D01*
X612725Y296828D01*
Y296554D01*
X614785D01*
Y296593D01*
X614726Y296652D01*
X614629Y296701D01*
X614521Y296749D01*
X614385Y296789D01*
X614219Y296828D01*
X614033Y296857D01*
Y296749D01*
X613145D01*
Y296876D01*
D02*
G37*
G36*
X612335Y296710D02*
X612247Y296662D01*
X612188Y296623D01*
X612140Y296574D01*
X612149Y296554D01*
X612335D01*
Y296710D01*
D02*
G37*
G36*
X615038Y296681D02*
X615029D01*
X614999Y296671D01*
X614970Y296652D01*
X614960Y296603D01*
Y296593D01*
X614970Y296564D01*
X614990Y296525D01*
X615038Y296515D01*
X615048D01*
X615077Y296525D01*
X615107Y296554D01*
X615117Y296603D01*
Y296613D01*
X615107Y296642D01*
X615087Y296671D01*
X615038Y296681D01*
D02*
G37*
G36*
X615146Y295969D02*
X614843D01*
Y295666D01*
X615146D01*
Y295969D01*
D02*
G37*
G36*
X614121Y295276D02*
X613291D01*
Y295217D01*
X614121D01*
Y295276D01*
D02*
G37*
G36*
X614765Y296261D02*
X612169D01*
X612218Y295725D01*
X613399Y294505D01*
X613926Y295061D01*
X613125D01*
Y295432D01*
X614297D01*
X614677Y295832D01*
Y296125D01*
X614755D01*
X614765Y296261D01*
D02*
G37*
G36*
X612247Y295471D02*
X612432Y293519D01*
X613282Y294388D01*
X612247Y295471D01*
D02*
G37*
G36*
X614677Y295598D02*
X614297Y295198D01*
Y295061D01*
X614160D01*
X613506Y294388D01*
X614511Y293343D01*
X614697Y295500D01*
X614677D01*
Y295598D01*
D02*
G37*
G36*
X613399Y294280D02*
X612452Y293304D01*
X612540Y292328D01*
X613848D01*
X613838Y292416D01*
X613867Y292543D01*
X613916Y292650D01*
X613975Y292738D01*
X614043Y292806D01*
X614121Y292855D01*
X614219Y292904D01*
X614316Y292933D01*
X614404Y292943D01*
X614482Y292933D01*
X614502Y293128D01*
X613399Y294280D01*
D02*
G37*
G36*
X614404Y292660D02*
X614365D01*
X614316Y292650D01*
X614267Y292621D01*
X614219Y292592D01*
X614170Y292543D01*
X614141Y292475D01*
X614131Y292377D01*
Y292367D01*
Y292338D01*
X614150Y292289D01*
X614170Y292240D01*
X614199Y292182D01*
X614248Y292143D01*
X614316Y292104D01*
X614404Y292094D01*
X614453D01*
X614492Y292113D01*
X614550Y292133D01*
X614599Y292162D01*
X614648Y292211D01*
X614677Y292279D01*
X614687Y292377D01*
Y292387D01*
Y292426D01*
X614677Y292465D01*
X614648Y292523D01*
X614619Y292572D01*
X614570Y292621D01*
X614502Y292650D01*
X614404Y292660D01*
D02*
G37*
G36*
X612637Y292162D02*
X612608D01*
Y291938D01*
X612637D01*
Y292162D01*
D02*
G37*
%LPD*%
G36*
X614502Y292543D02*
X614531Y292514D01*
X614560Y292484D01*
X614580Y292436D01*
X614589Y292377D01*
Y292367D01*
Y292348D01*
X614570Y292289D01*
X614541Y292250D01*
X614511Y292221D01*
X614463Y292201D01*
X614404Y292192D01*
X614375D01*
X614316Y292211D01*
X614277Y292240D01*
X614248Y292270D01*
X614228Y292318D01*
X614219Y292377D01*
Y292387D01*
Y292406D01*
X614238Y292475D01*
X614267Y292504D01*
X614297Y292533D01*
X614345Y292553D01*
X614404Y292562D01*
X614433D01*
X614502Y292543D01*
D02*
G37*
%LPC*%
G36*
X614424Y292406D02*
X614394D01*
X614385Y292396D01*
X614375Y292377D01*
Y292367D01*
X614385Y292357D01*
X614404Y292348D01*
X614424D01*
X614433Y292357D01*
Y292377D01*
Y292387D01*
Y292396D01*
X614424Y292406D01*
D02*
G37*
%LPD*%
D10*
X478907Y259528D02*
X495907Y288972D01*
X478907Y259528D02*
X497526Y248778D01*
X495907Y288972D02*
X514526Y278222D01*
X497526Y248778D02*
X514526Y278222D01*
X493000Y242000D02*
X503000D01*
X493000Y193000D02*
X503000D01*
X493000D02*
Y242000D01*
X503000Y193000D02*
Y242000D01*
X522161Y221791D02*
X535161D01*
X522161Y204791D02*
Y221791D01*
Y204791D02*
X535161D01*
Y221791D01*
X503500Y172937D02*
X516500D01*
X503500D02*
Y179937D01*
X516500D01*
Y172937D02*
Y179937D01*
X555500Y151000D02*
X565000D01*
X551500Y155000D02*
X555500Y151000D01*
X551500Y155000D02*
Y171500D01*
X552500D01*
X571500Y151000D02*
X572500D01*
Y171500D01*
X571500D02*
X572500D01*
X559000D02*
X565000D01*
X534500Y155500D02*
Y168500D01*
X541500D01*
Y155500D02*
Y168500D01*
X534500Y155500D02*
X541500D01*
X521000Y156500D02*
X526000D01*
X521000Y168500D02*
X526000D01*
Y156500D02*
Y168500D01*
X521000Y156500D02*
Y168500D01*
X525000Y242500D02*
X530000D01*
X525000Y230500D02*
X530000D01*
X525000D02*
Y242500D01*
X530000Y230500D02*
Y242500D01*
X523425Y181000D02*
X528425D01*
X523425Y193000D02*
X528425D01*
Y181000D02*
Y193000D01*
X523425Y181000D02*
Y193000D01*
X531925Y181000D02*
X536925D01*
X531925Y193000D02*
X536925D01*
Y181000D02*
Y193000D01*
X531925Y181000D02*
Y193000D01*
X608500Y156000D02*
Y168000D01*
X603500Y156000D02*
Y168000D01*
Y156000D02*
X608500D01*
X603500Y168000D02*
X608500D01*
X600000Y156000D02*
Y168000D01*
X595000Y156000D02*
Y168000D01*
Y156000D02*
X600000D01*
X595000Y168000D02*
X600000D01*
D16*
X549602Y286357D02*
X550208Y285580D01*
X550864Y284845D01*
X551568Y284155D01*
X552317Y283514D01*
X553107Y282925D01*
X553934Y282390D01*
X554796Y281911D01*
X555688Y281492D01*
X556606Y281133D01*
X557546Y280836D01*
X558503Y280603D01*
X559474Y280435D01*
X560454Y280332D01*
X561439Y280295D01*
X562424Y280324D01*
X563405Y280418D01*
X564377Y280579D01*
X565337Y280804D01*
X566279Y281093D01*
X567200Y281444D01*
X568095Y281856D01*
X568961Y282328D01*
X569793Y282856D01*
X570588Y283439D01*
X571342Y284073D01*
X572051Y284757D01*
X572714Y285487D01*
X573326Y286259D01*
X573450Y303625D02*
X572842Y304411D01*
X572182Y305154D01*
X571473Y305851D01*
X570719Y306498D01*
X569924Y307093D01*
X569090Y307633D01*
X568221Y308116D01*
X567322Y308539D01*
X566397Y308900D01*
X565449Y309199D01*
X564483Y309433D01*
X563504Y309601D01*
X562515Y309703D01*
X561522Y309738D01*
X560529Y309706D01*
X559540Y309607D01*
X558561Y309442D01*
X557594Y309211D01*
X556645Y308915D01*
X555719Y308556D01*
X554818Y308136D01*
X553948Y307656D01*
X553113Y307118D01*
X552315Y306526D01*
X551560Y305881D01*
X550849Y305186D01*
X550187Y304445D01*
X549576Y303661D01*
X534369Y202791D02*
X533661Y203499D01*
X532954Y202791D01*
X533661Y202084D01*
X534369Y202791D01*
X521343Y286339D02*
Y303661D01*
Y286339D02*
X549576D01*
X601657D02*
Y303661D01*
X573424Y286284D02*
X601581D01*
X573424Y303607D02*
X601581D01*
X521343Y303661D02*
X549576D01*
X485001Y197166D02*
Y195833D01*
Y196499D01*
X488334D01*
X489000Y195833D01*
Y195167D01*
X488334Y194500D01*
X485001Y198499D02*
X489000D01*
Y201165D01*
X485668Y205163D02*
X485001Y204497D01*
Y203164D01*
X485668Y202497D01*
X488334D01*
X489000Y203164D01*
Y204497D01*
X488334Y205163D01*
X485001Y209162D02*
Y207829D01*
Y208495D01*
X488334D01*
X489000Y207829D01*
Y207163D01*
X488334Y206496D01*
X485001Y210495D02*
X489000D01*
Y213161D01*
X485668Y217159D02*
X485001Y216493D01*
Y215160D01*
X485668Y214494D01*
X488334D01*
X489000Y215160D01*
Y216493D01*
X488334Y217159D01*
X485001Y221158D02*
Y219825D01*
Y220492D01*
X488334D01*
X489000Y219825D01*
Y219159D01*
X488334Y218492D01*
X485001Y222491D02*
X489000D01*
Y225157D01*
X485668Y229155D02*
X485001Y228489D01*
Y227156D01*
X485668Y226490D01*
X488334D01*
X489000Y227156D01*
Y228489D01*
X488334Y229155D01*
X485001Y233154D02*
Y231821D01*
Y232488D01*
X488334D01*
X489000Y231821D01*
Y231155D01*
X488334Y230488D01*
X485001Y234487D02*
X489000D01*
Y237153D01*
X485668Y241152D02*
X485001Y240485D01*
Y239152D01*
X485668Y238486D01*
X488334D01*
X489000Y239152D01*
Y240485D01*
X488334Y241152D01*
X584500Y175001D02*
Y178000D01*
X585999D01*
X586499Y177500D01*
Y177000D01*
X585999Y176500D01*
X584500D01*
X585999D01*
X586499Y176001D01*
Y175501D01*
X585999Y175001D01*
X584500D01*
X587499D02*
X589498D01*
X588499D01*
Y178000D01*
X590498D02*
X591498D01*
X590998D01*
Y175001D01*
X590498Y175501D01*
X504000Y190999D02*
X503000D01*
X503500D01*
Y188000D01*
X504000D01*
X503000D01*
X499502Y190499D02*
X500001Y190999D01*
X501001D01*
X501501Y190499D01*
Y188500D01*
X501001Y188000D01*
X500001D01*
X499502Y188500D01*
X496502Y190499D02*
X497002Y190999D01*
X498002D01*
X498502Y190499D01*
Y189999D01*
X498002Y189499D01*
X497002D01*
X496502Y189000D01*
Y188500D01*
X497002Y188000D01*
X498002D01*
X498502Y188500D01*
X495503Y188000D02*
Y190999D01*
X494003D01*
X493503Y190499D01*
Y189499D01*
X494003Y189000D01*
X495503D01*
X492504Y188000D02*
X491504D01*
X492004D01*
Y190999D01*
X492504Y190499D01*
X517500Y215999D02*
Y213500D01*
X517000Y213000D01*
X516001D01*
X515501Y213500D01*
Y215999D01*
X514501Y213000D02*
X513501D01*
X514001D01*
Y215999D01*
X514501Y215499D01*
X500000Y178436D02*
Y175437D01*
X498500D01*
X498001Y175937D01*
Y177936D01*
X498500Y178436D01*
X500000D01*
X497001Y175437D02*
X496001D01*
X496501D01*
Y178436D01*
X497001Y177936D01*
X583500Y162999D02*
Y160000D01*
X582000D01*
X581501Y160500D01*
Y161000D01*
X582000Y161500D01*
X583500D01*
X582000D01*
X581501Y161999D01*
Y162499D01*
X582000Y162999D01*
X583500D01*
X580501D02*
X578502D01*
Y162499D01*
X580501Y160500D01*
Y160000D01*
X578502D01*
X577502D02*
X576502D01*
X577002D01*
Y162999D01*
X577502Y162499D01*
X545564Y150760D02*
Y152759D01*
X546064Y153259D01*
X547063D01*
X547563Y152759D01*
Y150760D01*
X547063Y150260D01*
X546064D01*
X546563Y151260D02*
X545564Y150260D01*
X546064D02*
X545564Y150760D01*
X544564Y150260D02*
X543564D01*
X544064D01*
Y153259D01*
X544564Y152759D01*
X525500Y171000D02*
Y173999D01*
X524001D01*
X523501Y173499D01*
Y172500D01*
X524001Y172000D01*
X525500D01*
X524500D02*
X523501Y171000D01*
X521001D02*
Y173999D01*
X522501Y172500D01*
X520502D01*
X529300Y245800D02*
Y248799D01*
X527801D01*
X527301Y248299D01*
Y247300D01*
X527801Y246800D01*
X529300D01*
X528300D02*
X527301Y245800D01*
X526301Y248299D02*
X525801Y248799D01*
X524801D01*
X524302Y248299D01*
Y247799D01*
X524801Y247300D01*
X525301D01*
X524801D01*
X524302Y246800D01*
Y246300D01*
X524801Y245800D01*
X525801D01*
X526301Y246300D01*
X528500Y195500D02*
Y198499D01*
X527001D01*
X526501Y197999D01*
Y197000D01*
X527001Y196500D01*
X528500D01*
X527500D02*
X526501Y195500D01*
X523502D02*
X525501D01*
X523502Y197499D01*
Y197999D01*
X524002Y198499D01*
X525001D01*
X525501Y197999D01*
X536500Y195500D02*
Y198499D01*
X535001D01*
X534501Y197999D01*
Y197000D01*
X535001Y196500D01*
X536500D01*
X535500D02*
X534501Y195500D01*
X533501D02*
X532501D01*
X533001D01*
Y198499D01*
X533501Y197999D01*
X606501Y172999D02*
X607000Y173499D01*
X608000D01*
X608500Y172999D01*
Y171000D01*
X608000Y170500D01*
X607000D01*
X606501Y171000D01*
X603502Y170500D02*
X605501D01*
X603502Y172499D01*
Y172999D01*
X604002Y173499D01*
X605001D01*
X605501Y172999D01*
X597501D02*
X598000Y173499D01*
X599000D01*
X599500Y172999D01*
Y171000D01*
X599000Y170500D01*
X598000D01*
X597501Y171000D01*
X596501Y170500D02*
X595501D01*
X596001D01*
Y173499D01*
X596501Y172999D01*
X510501Y291999D02*
X511000Y292499D01*
X512000D01*
X512500Y291999D01*
Y291499D01*
X512000Y291000D01*
X511000D01*
X510501Y290500D01*
Y290000D01*
X511000Y289500D01*
X512000D01*
X512500Y290000D01*
X509501Y292499D02*
Y289500D01*
X508501Y290500D01*
X507502Y289500D01*
Y292499D01*
X506502Y289500D02*
X505502D01*
X506002D01*
Y292499D01*
X506502Y291999D01*
M02*
